<?xml version="1.0" standalone="no"?>
<!DOCTYPE svg PUBLIC "-//W3C//DTD SVG 20010904//EN"
 "http://www.w3.org/TR/2001/REC-SVG-20010904/DTD/svg10.dtd">
<svg version="1.0" xmlns="http://www.w3.org/2000/svg"
 width="512.000000pt" height="512.000000pt" viewBox="0 0 512.000000 512.000000"
 preserveAspectRatio="xMidYMid meet">

<g transform="translate(0.000000,512.000000) scale(0.100000,-0.100000)"
fill="#000000" stroke="none">
<path d="M574 4437 c19 -78 184 -282 329 -410 l66 -58 -39 83 c-58 121 -75
233 -45 291 l14 28 -52 24 c-75 33 -147 53 -219 61 l-61 7 7 -26z"/>
<path d="M3539 4062 c-73 -3 -76 -4 -72 -25 6 -31 -23 -139 -52 -197 -13 -25
-38 -61 -57 -79 -31 -31 -32 -33 -8 -26 60 18 181 80 269 139 109 73 200 159
181 171 -17 11 -169 21 -261 17z"/>
<path d="M1653 3355 c-95 -41 -97 -206 -4 -244 78 -33 172 36 173 126 1 54
-26 102 -67 119 -42 17 -61 17 -102 -1z m119 -42 c22 -20 23 -51 1 -75 -20
-22 -51 -23 -75 -1 -24 21 -23 48 2 73 24 24 47 25 72 3z"/>
<path d="M2495 3360 c-62 -25 -93 -116 -61 -177 60 -117 216 -99 233 26 14
101 -84 188 -172 151z m47 -47 c20 -18 24 -63 6 -81 -16 -16 -63 -15 -76 1
-22 28 -23 56 -3 76 25 25 48 27 73 4z"/>
<path d="M1400 3092 c-96 -96 -38 -327 94 -377 38 -15 48 -15 72 -3 46 22 68
62 72 131 8 136 -87 277 -188 277 -12 0 -34 -13 -50 -28z"/>
<path d="M2727 3099 c-64 -34 -127 -158 -127 -248 1 -58 34 -119 73 -136 50
-21 97 -5 146 51 89 101 97 268 16 332 -34 27 -59 27 -108 1z"/>
<path d="M2090 3060 c0 -14 31 -20 51 -10 27 15 24 18 -16 18 -19 0 -35 -4
-35 -8z"/>
<path d="M2964 2105 c2 -44 7 -92 11 -107 7 -27 6 -28 -34 -28 -29 0 -41 -4
-41 -14 0 -30 24 -121 34 -132 11 -12 281 -42 291 -33 5 6 -37 191 -58 259 -8
25 -15 36 -16 25 -1 -15 -10 -8 -36 29 -34 48 -35 49 -35 20 0 -51 -14 -58
-36 -19 -18 33 -19 34 -24 13 -5 -20 -8 -18 -33 23 l-28 44 5 -80z"/>
<path d="M2806 1995 c-9 -26 -7 -32 5 -12 6 10 9 21 6 23 -2 3 -7 -2 -11 -11z"/>
<path d="M2675 1799 c-39 -39 -94 -89 -123 -111 -30 -22 -51 -42 -48 -45 14
-14 98 32 145 80 42 41 112 147 98 147 -1 0 -34 -32 -72 -71z"/>
<path d="M1543 1795 c14 -27 40 -64 59 -81 33 -31 155 -90 165 -80 3 2 -20 21
-51 41 -31 20 -89 66 -128 103 l-71 67 26 -50z"/>
<path d="M2643 913 c-52 -4 -68 -15 -37 -27 20 -8 78 -8 127 0 30 5 35 9 26
20 -6 8 -23 13 -38 12 -14 -1 -50 -3 -78 -5z"/>
<path d="M1545 890 c7 -12 92 -12 120 0 14 6 -3 9 -53 9 -46 1 -71 -3 -67 -9z"/>
<path d="M1717 833 c-20 -14 -36 -27 -35 -29 2 -1 23 1 48 6 25 5 67 12 95 15
56 8 46 20 -25 29 -38 5 -51 2 -83 -21z"/>
<path d="M2451 849 c-48 -9 -65 -19 -35 -19 28 -1 165 -19 189 -26 11 -3 -1 9
-27 25 -51 33 -57 34 -127 20z"/>
</g>
</svg>
